{"title":"Paris, Texas 1984 DVD9rip English Klam","uid":8508930,"size":2389341089,"categoryP":"video","categoryS":"movies","magnet":"?xt=urn:btih:acad6698d6aafadf94883d02df07cd6e3676a261&amp;dn=Paris%2C+Texas+1984+DVD9rip+English+Klam&amp;tr=udp%3A%2F%2Ftracker.openbittorrent.com%3A80&amp;tr=udp%3A%2F%2Fopen.demonii.com%3A1337&amp;tr=udp%3A%2F%2Ftracker.coppersurfer.tk%3A6969&amp;tr=udp%3A%2F%2Fexodus.desync.com%3A6969","seeders":0,"leechers":1,"uploader":"Klambake","files":-1,"time":1369510072,"description":"With: Harry Dean Stanton, Nastassja Kinski and Dean Stockwell\n\nDe film vertelt het verhaal van Travis (Harry Dean Stanton). Travis wordt gevonden in de woestijn en door zijn broer Walt (Dean Stockwell) meegenomen naar huis. Daar aangekomen vindt een ontroerende ontmoeting plaats tussen Travis en zijn inmiddels 7 jaar oude zoontje Hunter. Als blijkt dat ook Hunters moeder (Nastassja Kinski) nog in leven is gaan Hunter en Travis samen naar haar op zoek.\n\nA man wanders out of the desert not knowing who he is. His brother finds him, and helps to pull his memory back of the life he led before he walked out on his wife and son four years before...\n &lt;a href=&quot;\nhttp://www.imdb.com/title/tt0087884&quot; rel=&quot;nofollow&quot; target=&quot;_NEW&quot;&gt;\nhttp://www.imdb.com/title/tt0087884&lt;/a&gt;\t\n\n------------------------ Dutch Friends ------------------------\n---------------------------------------------------------------\n- Bezoek ook eens mijn vrienden op: &lt;a href=&quot; http://www.Film-Test.nl&quot; rel=&quot;nofollow&quot; target=&quot;_NEW&quot;&gt; http://www.Film-Test.nl&lt;/a&gt; --\n----- voor mijn Nederlandse Sync. ondertitels ---- en meer ----\n------- http://www.Film-Test.nl ---- Over Films en meer -------\n---------------------------------------------------------------\n\nGeneral:\n\nComplete name                    : Paris, TexasParis, Texas.avi\nFormat                           : AVI\nFormat/Info                      : Audio Video Interleave\nFile size                        : 2.22 GiB\nDuration                         : 2h 24mn\nOverall bit rate                 : 2 198 Kbps\n\nVideo:\n\nFormat                           : MPEG-4 Visual\nFormat profile                   : Simple@L3\nFormat settings, BVOP            : No\nFormat settings, QPel            : No\nFormat settings, GMC             : No warppoints\nFormat settings, Matrix          : Default (H.263)\nCodec ID                         : XVID\nCodec ID/Hint                    : XviD\nDuration                         : 2h 24mn\nBit rate                         : 1 739 Kbps\nWidth                            : 704 pixels\nHeight                           : 396 pixels\nDisplay aspect ratio             : 16:9\nFrame rate                       : 23.976 fps\nColor space                      : YUV\nChroma subsampling               : 4:2:0\nBit depth                        : 8 bits\nScan type                        : Progressive\nCompression mode                 : Lossy\nBits/(Pixel*Frame)               : 0.260\nStream size                      : 1.76 GiB (79%)\nWriting library                  : XviD 1.1.2 (UTC 2006-11-01)\n\nAudio:\n\nFormat                           : AC-3\nFormat/Info                      : Audio Coding 3\nMode extension                   : CM (complete main)\nCodec ID                         : 2000\nDuration                         : 2h 24mn\nBit rate mode                    : Constant\nBit rate                         : 448 Kbps\nChannel(s)                       : 6 channels\nChannel positions                : Front: L C R, Side: L R, LFE\nSampling rate                    : 48.0 KHz\nBit depth                        : 16 bits\nCompression mode                 : Lossy\nStream size                      : 464 MiB (20%)\nAlignment                        : Aligned on interleaves\nInterleave, duration             : 32 ms (0.77 video frame)\nInterleave, preload duration     : 320 ms","torrent":{"xt":"urn:btih:acad6698d6aafadf94883d02df07cd6e3676a261","amp;dn":"Paris%2C+Texas+1984+DVD9rip+English+Klam","amp;tr":["udp%3A%2F%2Ftracker.openbittorrent.com%3A80","udp%3A%2F%2Fopen.demonii.com%3A1337","udp%3A%2F%2Ftracker.coppersurfer.tk%3A6969","udp%3A%2F%2Fexodus.desync.com%3A6969"],"infoHash":"acad6698d6aafadf94883d02df07cd6e3676a261","infoHashBuffer":{"type":"Buffer","data":[172,173,102,152,214,170,250,223,148,136,61,2,223,7,205,110,54,118,162,97]},"announce":[],"urlList":[]}}